<svg version="1.2" xmlns="http://www.w3.org/2000/svg" viewBox="0 0 338 109" width="338" height="109"><style>tspan{white-space:pre}.a{fill:#fff055}.b{font-size: 72px;line-height: 24px;text-transform: uppercase;fill: #171d1c;font-weight: 400;font-family: "Oswald-Regular", "Oswald"}</style><path class="a" d="m87.9 96.6l-31.3 12.3-32.5-8.5-21.3-26-1.9-33.5 18.1-28.2 31.2-12.3 32.5 8.5 21.3 26 2 33.5z"/><text style="transform:matrix(1,0,0,1,114.088,80.509)" ><tspan x="0" y="0" class="b" dx="0 -1 -1 -1 -1 -1 -1 -1" >JUNONIA
</tspan></text><filter id="f0"><feFlood flood-color="#171d1c" flood-opacity="1" /><feBlend mode="normal" in2="SourceGraphic"/><feComposite in2="SourceAlpha" operator="in" /></filter><g filter="url(#f0)"><path  d="m64.8 52.6c0 0 3.2-4.1 6.6-4.8 3.3-0.8-9.6-4.8-11.1-2.1 0 0-1.9 1.8-1.4 5.9 0 0 0.1 0.9 5.9 1z"/><path  d="m58.2 47.1c0 0-0.8 2.8-0.3 5.1 0 0-3 4.7-4.8 3.1 0 0-4.3-2.3-1.4-5.5 0 0 6.4-5.6 6.5-2.7z"/><path  d="m50.3 55c0 0 3 2.5 4.1 2.4 0 0-0.6 3.8 1.8 5.2 0 0-2.7 4.7-4.2 2.7 0 0-6.4-7.6-1.7-10.3z"/><path  d="m54.1 66.7l3.1-3.1c0 0 1.7-1.6 3.1 0.7 0 0 3.1 3.8 1.7 5.5 0 0-8.7 2.8-7.9-3.1z"/><path  d="m59.6 57.1c0 0 0 2.7-1.7 1.3 0 0-1.2-0.7 0.3-2.7 0 0 3.6-1.7 5.2 2 0 0 0.3 2-1.4 4.5 0 0-1 3.6 2.5 5.5 0 0 0.8 1.2 2.7-3.8 0 0 1.4-8.1-3.8-9.9 0 0-4.4-2.2-7.2 1.3 0 0-2.6 4.9 1.7 6.9 0 0 4.5 0.6 3.5-4.1 0 0-0.8-2.1-1.8-1z"/><path  d="m78.3 33c0 0-4.3-6.6-14.5-9.6 0 0-8.3 0.9-11.4 9.3 0 0-2.6 5.4-2.5 12.7 0 0 0.4 2.7 2.8 1 0 0 3.3-2.7 6.6-1.4 0 0 1.4-1.3 4.8-1.7 0 0 3.1-4.6 12.1-5.8 9-1.3 0-0.4 0-0.4 0 0 4.5 0.3 2.1-4.1z"/><path  d="m57.9 22c0 0-18.5 0.8-22.5 11 0 0-1.3 3-0.3 9.6 0 0 3.3 9.4 7.9 11.4 0 0 4.3 2.1 4.8-1.1q0.1-0.1 0.1-0.3c0 0 2-2.9 0.3-5.5 0 0-1.5-15.4 9-22 0 0 4-2.1 0.7-3.1z"/><path  d="m32.7 33.7c0 0-6.9 5.1-7.7 22.7 0 0-1.3 8.3 11.8 9.9 0 0 12.1 0.6 10.7-3.4 0 0-0.7-3.3-0.3-5.2 0 0 0.1-2.2-2.4-2 0 0-13.3-3.3-11.5-20.6 0 0 0.7-2-0.6-1.4z"/><path  d="m46.5 66c0 0-3.1 3.9-14.9 0.3 0 0-4.5-1.6-3.4 1.8 0 0 1.3 9.1 11.4 11.3 0 0 4.8 1.8 12.4-6.2 0 0 2.3-2-0.3-3.8 0 0-3-3.9-5.2-3.4z"/><path  d="m54.4 72.5c0 0-3.6 6.5-12.1 7.9 0 0-6.9 0.3-1.7 3.5 0 0 7.3 5.2 14.5 3.8 0 0 5.6-1.3 6.6-12.8 0 0-2.3-5.8-7.3-2.4z"/><path  d="m62.4 72.5c0 0 2.1 8.5-2.8 13.8 0 0-2 3 5.2 1 0 0 11.1-5.3 8.8-11.3q-0.1-0.2-0.1-0.4c-2.9-6.2-3.1-8.6-5.9-7.9-2.8 0.7-0.4 0-0.4 0 0 0-0.7 2-2.4 1.7 0 0-2.9 1.4-2.4 3.1z"/><path  d="m68.6 66.3q0 0 0.2 0.2c1.2 0.6 6 3.8 6.7 10.8 0 0 2.3 2.8 4.2-4.8 1.8-7.5-0.4-0.3-0.4-0.3 0 0 4-11-0.3-12.7 0 0-6.6-3.6-8.3 0 0 0-1.3 1.1-1.4 3.1-0.1 2 0 0.3 0 0.3 0 0-0.8 2-0.7 3.1"/><path  d="m69 58.4c0 0 4.8-3.1 8.6-0.7 0 0 4-1.8 0.7-5.1 0 0-4.3-6.4-10-1.7 0 0-2 1.2-2.5 3.1 0 0 1.6 0.1 3.2 4.4z"/></g></svg>