<svg version="1.2" xmlns="http://www.w3.org/2000/svg" viewBox="0 0 300 79" width="300" height="79"><style>tspan{white-space:pre}.a{font-size: 72px;line-height: 24px;text-transform: uppercase;fill: #000000;font-weight: 400;font-family: "Oswald-Regular", "Oswald"}</style><filter id="f0"><feFlood flood-color="#ffffff" flood-opacity="1" /><feBlend mode="normal" in2="SourceGraphic"/><feComposite in2="SourceAlpha" operator="in" /></filter><g filter="url(#f0)"><text style="transform:matrix(1,0,0,1,77.088,68.509)" ><tspan x="0" y="0" class="a" dx="0 -1 -1 -1 -1 -1 -1 -1" >JUNONIA
</tspan></text><path  d="m47.6 36.6c0 0 3.9-4.8 7.9-5.7 4-0.9-11.5-5.7-13.2-2.5 0 0-2.4 2.1-1.7 7 0 0 0.1 1.2 7 1.2z"/><path  d="m39.8 30c0 0-1.1 3.4-0.4 6.2 0 0-3.6 5.6-5.8 3.7 0 0-5.1-2.8-1.7-6.6 0 0 7.7-6.8 7.9-3.3z"/><path  d="m30.3 39.5c0 0 3.6 2.9 4.9 2.9 0 0-0.7 4.5 2.1 6.2 0 0-3.3 5.6-5 3.2 0 0-7.6-9-2-12.3z"/><path  d="m34.8 53.5l3.7-3.7c0 0 2-1.9 3.8 0.8 0 0 3.7 4.6 2 6.6 0 0-10.5 3.4-9.5-3.7z"/><path  d="m41.4 42c0 0 0 3.3-2 1.6 0 0-1.5-0.9 0.4-3.3 0 0 4.2-2 6.2 2.5 0 0 0.3 2.3-1.7 5.3 0 0-1.2 4.4 2.9 6.6 0 0 1 1.5 3.3-4.5 0 0 1.6-9.8-4.5-11.9 0 0-5.3-2.7-8.7 1.6 0 0-3.1 5.8 2.1 8.2 0 0 5.4 0.7 4.1-4.9 0 0-0.9-2.5-2.1-1.2z"/><path  d="m63.8 13.2c0 0-5.1-7.9-17.4-11.6 0 0-9.9 1.2-13.7 11.2 0 0-3 6.5-2.9 15.2 0 0 0.5 3.3 3.4 1.2 0 0 3.9-3.2 7.8-1.6 0 0 1.7-1.7 5.8-2.1 0 0 3.7-5.5 14.5-7 10.7-1.5 0-0.4 0-0.4 0 0 5.3 0.3 2.5-4.9z"/><path  d="m39.4 0c0 0-22.2 1-26.9 13.2 0 0-1.6 3.6-0.4 11.5 0 0 3.9 11.2 9.5 13.6 0 0 5.1 2.5 5.7-1.3q0-0.2 0.1-0.4c0 0 2.4-3.4 0.4-6.6 0 0-1.9-18.4 10.7-26.3 0 0 4.9-2.5 0.9-3.7z"/><path  d="m9.2 14c0 0-8.3 6.1-9.1 27.1 0 0-1.7 10 14 12 0 0 14.5 0.6 12.8-4.1 0 0-0.8-3.9-0.4-6.2 0 0 0.2-2.8-2.9-2.5 0 0-15.8-4-13.6-24.7 0 0 0.8-2.4-0.8-1.6z"/><path  d="m25.7 52.7c0 0-3.7 4.6-17.8 0.4 0 0-5.4-1.9-4.1 2 0 0 1.6 11 13.6 13.6 0 0 5.8 2.1 14.9-7.4 0 0 2.8-2.5-0.4-4.5 0 0-3.6-4.8-6.2-4.1z"/><path  d="m35.2 60.5c0 0-4.3 7.7-14.5 9.4 0 0-8.3 0.3-2 4.2 0 0 8.7 6.2 17.3 4.5 0 0 6.7-1.5 7.9-15.2 0 0-2.8-7-8.7-2.9z"/><path  d="m44.7 60.5c0 0 2.6 10.1-3.3 16.4 0 0-2.4 3.7 6.2 1.3 0 0 13.3-6.3 10.6-13.6q-0.1-0.2-0.2-0.4c-3.5-7.4-3.7-10.3-7.1-9.5-3.3 0.8-0.4 0-0.4 0 0 0-0.8 2.4-2.9 2.1 0 0-3.5 1.6-2.9 3.7z"/><path  d="m52.2 53.1q0 0 0.3 0.1c1.3 0.8 7 4.6 8 13 0 0 2.7 3.3 4.9-5.7 2.2-9.1-0.4-0.4-0.4-0.4 0 0 4.8-13.1-0.4-15.3 0 0-7.9-4.2-9.9 0 0 0-1.6 1.4-1.7 3.8-0.1 2.4 0 0.4 0 0.4 0 0-1 2.4-0.8 3.7"/><path  d="m52.6 43.6c0 0 5.8-3.7 10.3-0.8 0 0 4.8-2.3 0.9-6.2 0 0-5.2-7.7-12-2 0 0-2.4 1.5-2.9 3.7 0 0 1.8 0.2 3.7 5.3z"/></g></svg>